<svg xmlns="http://www.w3.org/2000/svg" xmlns:xlink="http://www.w3.org/1999/xlink" fill="none" version="1.1" width="16" height="16" viewBox="0 0 16 16"><g><g style="opacity:0;"></g><g><path d="M3.73961,6.0463000000000005L5.83459,3.885354C6.04001,3.697803,6.05675,3.376654,5.87197,3.168137C5.68719,2.9596196,5.37089,2.9427364,5.1655999999999995,3.130432L2.16563,6.17652C1.94479,6.37821,1.94479,6.729760000000001,2.16563,6.93144L5.1655999999999995,9.97753C5.37091,10.16511,5.6871,10.14818,5.871840000000001,9.93971C6.05658,9.73125,6.0399,9.41019,5.83459,9.22261L3.73961,7.06166L10.50004,7.06166C11.60453,7.06166,13,7.71708,13,9.600069999999999C13,11.48306,11.60453,12.13848,10.50004,12.13848L8.750060000000001,12.13848C8.47392,12.13848,8.250060000000001,12.36578,8.250060000000001,12.64616C8.250060000000001,12.92655,8.47392,13.1538,8.750060000000001,13.1538L10.50004,13.1538C12.1568,13.1538,14,12.0438,14,9.600069999999999C14,7.15635,12.1568,6.0463000000000005,10.50004,6.0463000000000005L3.73961,6.0463000000000005Z" fill="#7B7AC4" fill-opacity="1"/></g></g></svg>