<svg xmlns="http://www.w3.org/2000/svg" xmlns:xlink="http://www.w3.org/1999/xlink" fill="none" version="1.1" width="22" height="22" viewBox="0 0 22 22"><g><g><g style="opacity:0;"></g><g><path d="M12.113063125,11.000003750000001L17.752753124999998,4.27753875C17.847253125,4.16582075,17.767753125,3.9960937500000004,17.621653125,3.9960937500000004L15.907253125,3.9960937500000004C15.806253125,3.9960937500000004,15.709553125,4.04121095,15.642953125,4.11855475L10.991573125,9.663673750000001L6.340213125,4.11855475C6.275753125,4.04121095,6.179083125,3.99609375,6.075953125,3.99609375L4.361500125,3.99609375C4.215406525,3.99609375,4.135914325,4.16582075,4.230445525,4.27753875L9.870093125,11.000003750000001L4.230445525,17.722493749999998C4.135914325,17.83419375,4.215406525,18.00389375,4.361500125,18.00389375L6.075953125,18.00389375C6.176933125,18.00389375,6.273613125,17.958793749999998,6.340213125,17.88149375L10.991573125,12.33632375L15.642953125,17.88149375C15.707353125,17.958793749999998,15.804053125,18.00389375,15.907253125,18.00389375L17.621653125,18.00389375C17.767753125,18.00389375,17.847253125,17.83419375,17.752753124999998,17.722493749999998L12.113063125,11.000003750000001Z" fill-rule="evenodd" fill="currentColor" fill-opacity="1"/></g></g></g></svg>