<svg xmlns="http://www.w3.org/2000/svg" xmlns:xlink="http://www.w3.org/1999/xlink" fill="none" version="1.1" width="16" height="16" viewBox="0 0 16 16"><g><g><path d="M5.38835,1.694201L5.38835,10.61165L14.3058,10.61165C14.6892,10.61165,15,10.92247,15,11.3059C15,11.6892,14.6892,12,14.3058,12L4.6941749999999995,12C4.310792,12,4,11.6892,4,11.3058L4,1.694201C4,1.310819,4.310786,1,4.694168,1C5.0775500000000005,1,5.38835,1.310819,5.38835,1.694201Z" fill-rule="evenodd" fill="#7B7AC4" fill-opacity="1"/></g><g transform="matrix(-1,-5.2146120310681e-8,5.2146120310681e-8,-1,23.999999217808195,30.000000625753444)"><path d="M13.388349999999999,15.694201L13.388349999999999,24.611649999999997L22.305799999999998,24.611649999999997C22.6892,24.611649999999997,23,24.92247,23,25.3059C23,25.6892,22.6892,26,22.305799999999998,26L12.694175,26C12.310792,26,12,25.6892,12,25.305799999999998L12,15.694201C12,15.310819,12.310786,15,12.694168,15C13.07755,15,13.388349999999999,15.310819,13.388349999999999,15.694201Z" fill-rule="evenodd" fill="#7B7AC4" fill-opacity="1"/></g></g></svg>