<svg xmlns="http://www.w3.org/2000/svg" xmlns:xlink="http://www.w3.org/1999/xlink" fill="none" version="1.1" width="19.5535888671875" height="20" viewBox="0 0 19.5535888671875 20"><g><g><path d="M9.477379940395355,0C5.283039940395355,0.000505389,1.5878299403953553,2.82082,0.39326994039535523,6.93333C-0.8012940596046447,11.0458,0.7889119403953552,15.4724,4.302559940395355,17.8153C7.816209940395355,20.1582,12.417599940395355,19.8603,15.614299940395355,17.0829L18.239999940395354,19.7686C18.539699940395355,20.0763,19.026499940395354,20.0773,19.327299940395356,19.7707C19.628199940395355,19.4642,19.629099940395356,18.9663,19.329399940395355,18.6586L16.702299940395356,15.9714C19.094299940395356,13.092,19.632599940395355,9.05338,18.081599940395357,5.62404C16.530599940395355,2.1947,13.172899940395356,-0.000378138,9.478779940395356,0L9.477379940395355,0ZM1.5360099403953553,9.69428C1.5360099403953553,6.79226,3.0496399403953554,4.11068,5.506719940395355,2.65967C7.963799940395355,1.20866,10.991099940395355,1.20866,13.448099940395355,2.65967C15.905199940395356,4.11068,17.418799940395356,6.79226,17.418799940395356,9.69428C17.418799940395356,14.1804,13.863299940395356,17.8171,9.477429940395355,17.8171C5.091499940395355,17.8171,1.5360099403953553,14.1804,1.5360099403953553,9.69428ZM12.123999940395356,7.42287L10.330699940395355,7.42287L10.330699940395355,13.9729C10.330699940395355,14.4068,9.986799940395356,14.7586,9.562549940395355,14.7586C9.138309940395356,14.7586,8.794389940395355,14.4068,8.794389940395355,13.9729L8.794389940395355,7.42287L7.001069940395356,7.42287C6.726639940395355,7.42287,6.473039940395355,7.27311,6.335819940395355,7.03001C6.198609940395356,6.78691,6.198609940395356,6.4874,6.335819940395355,6.2443C6.473039940395355,6.0012,6.726639940395355,5.85144,7.001069940395356,5.85144L12.123999940395356,5.85144C12.548299940395355,5.85144,12.892199940395356,6.20322,12.892199940395356,6.63716C12.892199940395356,7.07109,12.548299940395355,7.42287,12.123999940395356,7.42287Z" fill-rule="evenodd" fill="#2B345E" fill-opacity="1"/></g></g></svg>