<svg xmlns="http://www.w3.org/2000/svg" width="16" height="16"><path fill="currentColor" fill-rule="nonzero" d="M12.222 1a.71.71 0 0 1 .71.71v1.198a.519.519 0 1 1-1.037 0v-.871H2.038v11.926l.087.008c.228.04.403.237.409.476v.047c0 .28-.226.506-.505.506h-.318A.71.71 0 0 1 1 14.29V1.71A.71.71 0 0 1 1.71 1h10.512Zm-2.96 2.474c1.648 0 2.99 1.34 2.99 2.987 0 .896-.404 1.745-1.099 2.312a5.753 5.753 0 0 1 3.395 3.182c.262.617.413 1.276.445 1.944l.007.287c0 .018 0 .05-.002.097a.71.71 0 0 1-.713.685H4.239a.71.71 0 0 1-.712-.685l-.003-.097A5.729 5.729 0 0 1 7.37 8.773 2.982 2.982 0 0 1 6.273 6.46a2.992 2.992 0 0 1 2.989-2.987Zm0 6.016a4.704 4.704 0 0 0-4.694 4.441h9.387A4.705 4.705 0 0 0 9.261 9.49Zm0-4.98A1.951 1.951 0 1 0 9.26 8.41a1.951 1.951 0 0 0 .002-3.898ZM5.34 6.324V7.36h-2.1V6.323h2.1Zm0-2.3V5.06h-2.1V4.023h2.1Z"/></svg>