<svg xmlns="http://www.w3.org/2000/svg" xmlns:xlink="http://www.w3.org/1999/xlink" fill="none" version="1.1" width="20" height="20" viewBox="0 0 20 20"><defs><clipPath id="master_svg0_21_17193/8_3289/8_3279"><rect x="0" y="0" width="20" height="20" rx="0"/></clipPath></defs><g clip-path="url(#master_svg0_21_17193/8_3289/8_3279)"><g><path d="M4.6666717529296875,16.58338701171875L2.9166717529296875,16.58338701171875C2.5024577529296876,16.58338701171875,2.1666717529296875,16.24758701171875,2.1666717529296875,15.83338701171875L2.1666717529296875,2.08335701171875Q2.1666717529296875,1.60010601171875,2.5083807529296873,1.25839701171875Q2.8500907529296873,0.91668701171875,3.3333417529296874,0.91668701171875L14.583371752929688,0.91668701171875C14.997571752929687,0.91668701171875,15.333371752929688,1.25247301171875,15.333371752929688,1.66668701171875L15.333371752929688,3.41668701171875L17.083371752929686,3.41668701171875C17.497571752929687,3.41668701171875,17.833371752929686,3.75247701171875,17.833371752929686,4.16668701171875L17.833371752929686,18.33338701171875C17.833371752929686,18.74758701171875,17.497571752929687,19.08338701171875,17.083371752929686,19.08338701171875L5.4166717529296875,19.08338701171875C5.002461752929687,19.08338701171875,4.6666717529296875,18.74758701171875,4.6666717529296875,18.33338701171875L4.6666717529296875,16.58338701171875ZM4.6666717529296875,15.08338701171875L3.6666717529296875,15.08338701171875L3.6666717529296875,2.41668701171875L13.833371752929688,2.41668701171875L13.833371752929688,3.41668701171875L5.4166717529296875,3.41668701171875C5.002461752929687,3.41668701171875,4.6666717529296875,3.75247701171875,4.6666717529296875,4.16668701171875L4.6666717529296875,15.08338701171875ZM6.1666717529296875,15.83338701171875L6.1666717529296875,17.58338701171875L16.333371752929686,17.58338701171875L16.333371752929686,4.91668701171875L6.1666717529296875,4.91668701171875L6.1666717529296875,15.83338701171875ZM8.749981752929688,9.91668701171875L13.749971752929687,9.91668701171875C14.164171752929688,9.91668701171875,14.499971752929687,9.58089701171875,14.499971752929687,9.16668701171875C14.499971752929687,8.75247701171875,14.164171752929688,8.41668701171875,13.749971752929687,8.41668701171875L8.749981752929688,8.41668701171875C8.335771752929688,8.41668701171875,7.9999817529296875,8.75247701171875,7.9999817529296875,9.16668701171875C7.9999817529296875,9.58089701171875,8.335771752929688,9.91668701171875,8.749981752929688,9.91668701171875ZM8.749981752929688,13.24998701171875L13.749971752929687,13.24998701171875C14.164171752929688,13.24998701171875,14.499971752929687,12.91418701171875,14.499971752929687,12.49998701171875C14.499971752929687,12.08568701171875,14.164171752929688,11.74998701171875,13.749971752929687,11.74998701171875L8.749981752929688,11.74998701171875C8.335771752929688,11.74998701171875,7.9999817529296875,12.08568701171875,7.9999817529296875,12.49998701171875C7.9999817529296875,12.91418701171875,8.335771752929688,13.24998701171875,8.749981752929688,13.24998701171875Z" fill-rule="evenodd" fill="#83889F" fill-opacity="1"/></g></g></svg>