<svg xmlns="http://www.w3.org/2000/svg" xmlns:xlink="http://www.w3.org/1999/xlink" fill="none" version="1.1" width="22" height="22" viewBox="0 0 22 22"><g><g><g style="opacity:0;"></g><g><path d="M5.141970000000001,8.313659999999999L8.02256,5.34236C8.305019999999999,5.084479,8.32803,4.642899,8.07396,4.356188C7.81988,4.069477,7.38498,4.0462625,7.1027,4.304344L2.977741,8.49272C2.6740862,8.77004,2.6740862,9.25342,2.977741,9.53074L7.1027,13.71911C7.385,13.97703,7.81977,13.95375,8.07378,13.66711C8.32779,13.38046,8.30486,12.93901,8.02256,12.68109L5.141970000000001,9.70979L14.4376,9.70979C15.9562,9.70979,17.875,10.610990000000001,17.875,13.2001C17.875,15.7892,15.9562,16.6904,14.4376,16.6904L12.03133,16.6904C11.65164,16.6904,11.34384,17.0029,11.34384,17.3885C11.34384,17.774,11.65164,18.0865,12.03133,18.0865L14.4376,18.0865C16.715600000000002,18.0865,19.25,16.560200000000002,19.25,13.2001C19.25,9.83998,16.715600000000002,8.31367,14.4376,8.31367L5.141970000000001,8.313659999999999Z" fill="currentColor" fill-opacity="1"/></g></g></g></svg>