<svg xmlns="http://www.w3.org/2000/svg" xmlns:xlink="http://www.w3.org/1999/xlink" fill="none" version="1.1" width="36" height="36" viewBox="0 0 36 36"><defs><linearGradient x1="0.5" y1="0" x2="0.5" y2="1" id="master_svg0_12_0007"><stop offset="0%" stop-color="#6f86f9cc" stop-opacity="1"/><stop offset="100%" stop-color="#4D6BFE" stop-opacity="1"/></linearGradient></defs><g><g><path d="M0,4L0,32C0,34.2091,1.79086,36,4,36L32,36C34.2091,36,36,34.2091,36,32L36,10.3243C36,8.11519,34.2091,6.32432,32,6.32432L19.9696,6.32432C18.7277,6.32432,17.5563,5.74751,16.7991,4.76317L14.336,1.56116C13.5788,0.576816,12.4074,0,11.1655,0L4,0C1.79086,0,0,1.79086,0,4Z" fill="url(#master_svg0_12_0007)" fill-opacity="1"/></g><g><path d="M9.048648782531739,18.486328125L9.048648782531739,19.459301125L12.775136782531739,19.459301125L8.756756782531738,24.538218125L8.756756782531738,25.433358124999998L14.487566782531738,25.433358124999998L14.487566782531738,24.460378125L10.245406782531738,24.460378125L14.254056782531737,19.391193125L14.254056782531737,18.486328125L9.048648782531739,18.486328125ZM17.357836782531738,18.486328125L17.357836782531738,25.433358124999998L18.49621678253174,25.433358124999998L18.49621678253174,18.486328125L17.357836782531738,18.486328125ZM21.804356782531737,18.486328125L21.804356782531737,25.433358124999998L22.94265678253174,25.433358124999998L22.94265678253174,22.767408125L24.664856782531736,22.767408125C26.357856782531737,22.767408125,27.20435678253174,22.047408125,27.20435678253174,20.617138125C27.20435678253174,19.196598125,26.357856782531737,18.486328125,24.684356782531736,18.486328125L21.804356782531737,18.486328125ZM22.94265678253174,19.459301125L24.596756782531738,19.459301125C25.09295678253174,19.459301125,25.462656782531738,19.546868125,25.696256782531737,19.731738125C25.929756782531737,19.906868125,26.056256782531737,20.198758125,26.056256782531737,20.617138125C26.056256782531737,21.035518125,25.93945678253174,21.337138125,25.70595678253174,21.522008125C25.472456782531737,21.697138125,25.10265678253174,21.794438125,24.596756782531738,21.794438125L22.94265678253174,21.794438125L22.94265678253174,19.459301125Z" fill="#FFFFFF" fill-opacity="1"/></g></g></svg>